<?xml version="1.0" encoding="UTF-8"?>
<svg xmlns="http://www.w3.org/2000/svg" xmlns:xlink="http://www.w3.org/1999/xlink" viewBox="0 0 750 500">
  <defs>
    <style>
      .cls-1 {
        stroke-dasharray: 0 1.39;
      }

      .cls-1, .cls-2, .cls-3, .cls-4, .cls-5, .cls-6, .cls-7, .cls-8 {
        mix-blend-mode: overlay;
      }

      .cls-1, .cls-3, .cls-4, .cls-9, .cls-10, .cls-11 {
        fill: none;
      }

      .cls-1, .cls-3, .cls-4, .cls-10, .cls-11 {
        stroke: #fff;
        stroke-width: .46px;
      }

      .cls-1, .cls-3, .cls-4, .cls-6, .cls-7, .cls-8 {
        opacity: .25;
      }

      .cls-1, .cls-4, .cls-10, .cls-11 {
        stroke-linecap: round;
        stroke-linejoin: round;
      }

      .cls-12 {
        fill: url(#linear-gradient-12);
      }

      .cls-12, .cls-13, .cls-14, .cls-2, .cls-15, .cls-5, .cls-16, .cls-17, .cls-18, .cls-19, .cls-20, .cls-21, .cls-22, .cls-23, .cls-24, .cls-25, .cls-26, .cls-27, .cls-28, .cls-29, .cls-30, .cls-31, .cls-32, .cls-33, .cls-34, .cls-35, .cls-6, .cls-36, .cls-37, .cls-38, .cls-39, .cls-8, .cls-40 {
        stroke-width: 0px;
      }

      .cls-13 {
        fill: url(#linear-gradient-19);
      }

      .cls-14 {
        fill: url(#linear-gradient);
      }

      .cls-2 {
        fill: url(#linear-gradient-2);
        opacity: .45;
      }

      .cls-3, .cls-9 {
        stroke-miterlimit: 10;
      }

      .cls-15 {
        fill: url(#linear-gradient-6);
      }

      .cls-41 {
        isolation: isolate;
      }

      .cls-16 {
        fill: #f5b539;
      }

      .cls-17 {
        fill: #2f1829;
      }

      .cls-18 {
        fill: url(#linear-gradient-15);
      }

      .cls-19 {
        fill: url(#linear-gradient-5);
      }

      .cls-20 {
        fill: #1f3247;
      }

      .cls-21 {
        fill: #122230;
      }

      .cls-9 {
        stroke: #1f3247;
        stroke-width: .93px;
      }

      .cls-22 {
        fill: url(#linear-gradient-13);
      }

      .cls-23 {
        fill: url(#linear-gradient-16);
      }

      .cls-24, .cls-6 {
        fill: #fff;
      }

      .cls-25 {
        fill: url(#linear-gradient-14);
      }

      .cls-11 {
        stroke-dasharray: 0 0 1.39 1.39;
      }

      .cls-26 {
        fill: #4c3146;
      }

      .cls-27 {
        fill: url(#linear-gradient-11);
      }

      .cls-27, .cls-32, .cls-33, .cls-40 {
        mix-blend-mode: hard-light;
      }

      .cls-28 {
        fill: url(#linear-gradient-7);
      }

      .cls-29 {
        fill: #f3475c;
      }

      .cls-30 {
        fill: #982245;
      }

      .cls-31 {
        fill: url(#linear-gradient-9);
      }

      .cls-32 {
        fill: url(#linear-gradient-4);
      }

      .cls-33 {
        fill: url(#linear-gradient-17);
      }

      .cls-34 {
        fill: url(#linear-gradient-8);
      }

      .cls-35 {
        fill: url(#linear-gradient-18);
      }

      .cls-36 {
        fill: #ffadae;
      }

      .cls-37 {
        fill: #2f172b;
      }

      .cls-38 {
        fill: url(#linear-gradient-10);
      }

      .cls-39 {
        fill: #ffca51;
      }

      .cls-40 {
        fill: url(#linear-gradient-3);
      }
    </style>
    <linearGradient id="linear-gradient" x1="385.54" y1="338.47" x2="388.18" y2="134.91" gradientUnits="userSpaceOnUse">
      <stop offset="0" stop-color="#e8d197"/>
      <stop offset="1" stop-color="#fef5da"/>
    </linearGradient>
    <linearGradient id="linear-gradient-2" x1="384.92" y1="235.9" x2="388.39" y2="330.08" gradientUnits="userSpaceOnUse">
      <stop offset="0" stop-color="#000"/>
      <stop offset="1" stop-color="#000" stop-opacity="0"/>
    </linearGradient>
    <linearGradient id="linear-gradient-3" x1="402.3" y1="152.15" x2="402.96" y2="175.28" gradientUnits="userSpaceOnUse">
      <stop offset="0" stop-color="#fff"/>
      <stop offset="1" stop-color="#fff" stop-opacity="0"/>
    </linearGradient>
    <linearGradient id="linear-gradient-4" x1="188.1" y1="114.12" x2="190.08" y2="165.01" xlink:href="#linear-gradient-3"/>
    <linearGradient id="linear-gradient-5" x1="513.75" y1="317.21" x2="491.94" y2="129.35" xlink:href="#linear-gradient"/>
    <linearGradient id="linear-gradient-6" x1="118.08" y1="518.47" x2="81.32" y2="201.87" xlink:href="#linear-gradient"/>
    <linearGradient id="linear-gradient-7" x1="255.31" y1="330.74" x2="253.99" y2="236.45" gradientUnits="userSpaceOnUse">
      <stop offset="0" stop-color="#2f1829"/>
      <stop offset="1" stop-color="#3b223c"/>
    </linearGradient>
    <linearGradient id="linear-gradient-8" x1="380.64" y1="328.98" x2="379.31" y2="234.69" xlink:href="#linear-gradient-7"/>
    <linearGradient id="linear-gradient-9" x1="505.46" y1="327.23" x2="504.13" y2="232.94" xlink:href="#linear-gradient-7"/>
    <linearGradient id="linear-gradient-10" x1="339.07" y1="161.4" x2="350.3" y2="197.09" xlink:href="#linear-gradient-7"/>
    <linearGradient id="linear-gradient-11" x1="633.34" y1="324.54" x2="475.38" y2="214.17" xlink:href="#linear-gradient-3"/>
    <linearGradient id="linear-gradient-12" x1="625.28" y1="334.76" x2="625.14" y2="327.05" gradientUnits="userSpaceOnUse">
      <stop offset="0" stop-color="#fecba6"/>
      <stop offset="1" stop-color="#d17878"/>
    </linearGradient>
    <linearGradient id="linear-gradient-13" x1="587.73" y1="288.32" x2="612.29" y2="264.97" xlink:href="#linear-gradient-12"/>
    <linearGradient id="linear-gradient-14" x1="626.69" y1="297.41" x2="627.02" y2="270.75" xlink:href="#linear-gradient-12"/>
    <linearGradient id="linear-gradient-15" x1="610.34" y1="254.84" x2="616.04" y2="256.08" xlink:href="#linear-gradient-12"/>
    <linearGradient id="linear-gradient-16" x1="608.46" y1="338.96" x2="610.88" y2="327.34" xlink:href="#linear-gradient-12"/>
    <linearGradient id="linear-gradient-17" x1="-1610.24" y1="324.54" x2="-1768.19" y2="214.17" gradientTransform="translate(-1476.69) rotate(-180) scale(1 -1)" xlink:href="#linear-gradient-3"/>
    <linearGradient id="linear-gradient-18" x1="153.69" y1="251.84" x2="151.76" y2="262.47" xlink:href="#linear-gradient-12"/>
    <linearGradient id="linear-gradient-19" x1="182.27" y1="278.96" x2="171.11" y2="282.14" xlink:href="#linear-gradient-12"/>
  </defs>
  <g class="cls-41">
    <g id="OBJECTS">
      <g>
        <path class="cls-17" d="M159.28,343.15s9.82,17.42,80.54,25.35c70.72,7.93,106.4,34.37,151.35,42.3,44.94,7.93,100.46-44.28,148.7-36.35,48.25,7.93,106.4-22.28,111.03-31.3H159.28Z"/>
        <path class="cls-14" d="M669.9,339.69h-10.45l-460.63.08s-4.65-3.68-11.91-9.98c-3.11-2.71-6.71-5.9-10.62-9.5-1.42-1.3-2.88-2.66-4.38-4.07-13.72-12.91-30.32-29.96-43.8-48.12-14.2-19.12-24.96-39.47-25.26-57.5,0-.4-.01-.81,0-1.21.16-17.45,3.59-36.26,12.08-53.72,4.96-10.2,11.64-19.94,20.41-28.67,22.85-22.76,59.82-38.71,117.2-38.25,66.91.54,136.31,25.49,198.98,60h0c13.11,7.22,25.92,14.86,38.36,22.78,9.2,5.86,18.19,11.87,26.94,17.99,24.35,17.01,46.82,34.79,66.69,52.16,45.1,39.42,76.76,76.71,86.38,98Z"/>
        <path class="cls-2" d="M669.9,339.69h-10.45l-460.63.08s-4.65-3.68-11.91-9.98c-3.11-2.71-6.71-5.9-10.62-9.5-1.42-1.3-2.88-2.66-4.38-4.07-13.72-12.91-30.32-29.96-43.8-48.12-14.2-19.12-24.96-39.47-25.26-57.5,5.72-3.04,19.13-9.12,30.23-6.34,14.54,3.63,17.65,20.91,17.65,20.91,0,0,10.42-8.39,21.33-4.41,10.92,3.99,12.57,15.55,12.57,15.55,0,0,12.86-6.63,24.44-3.81,11.57,2.82,20.87,14.05,8.46,21.32-12.27,7.18-26.15,1.64-26.48,1.51.17.22,5.04,6.75-3.79,14.81-8.99,8.19,25.47,15.28,25.47,15.28,0,0,1.3-22.44,24.44-19.91,23.14,2.53,41.79,15.02,41.79,15.02,0,0,1.17-34.3,19.67-40.58,18.5-6.28,28.02,13.87,28.02,13.87,0,0,40.98-26.54,54.92-1.8,13.94,24.74,14.49,29.43,14.49,29.43,0,0,11.86-64.97,49.08-61.99,37.22,2.97,44.12,28.78,43.48,31.41-.64,2.62,10.69-16.68,21.87-6.2,11.19,10.48,17.68,25.11,17.68,25.11l58.89-6.95s-6-11.62-3.56-21.14c45.1,39.42,76.76,76.71,86.38,98Z"/>
        <path class="cls-40" d="M489.89,171.55h-174.07c21.81,0,26.11-7.93,38.99-12.22.62-.2,1.23-.38,1.84-.53,12.06-3.05,22.01,3.82,29.72,3.5,8.09-.33,17.02-8.92,26.27-11.89,3.14-1.01,6.4-.69,9.73.1,6.5,1.54,13.32,4.84,20.24,3.53,6.03-1.14,6.48-3.58,8.9-5.27h0c13.11,7.22,25.92,14.86,38.36,22.78Z"/>
        <path class="cls-32" d="M264.51,155.69H114.93c4.88-10.04,11.44-19.64,20-28.26l.41-.41c3.55-.73,7.35-1.24,11.36-1.4,23.72-.99,28.74,16.85,28.74,16.85,0,0,6.21-8.26,17.45-4.3,11.24,3.97,7.27,8.92,16.19,11.57,1.16.34,2.38.43,3.65.32,8.51-.73,19.25-10.05,28.73-6.59,10.91,3.96,3.79,12.22,23.04,12.22Z"/>
        <path class="cls-17" d="M689.82,346.52H133.48c-1.86,0-3.37-1.51-3.37-3.37h0c0-1.86,1.51-3.37,3.37-3.37h556.34c1.86,0,3.37,1.51,3.37,3.37h0c0,1.86-1.51,3.37-3.37,3.37Z"/>
        <path class="cls-6" d="M422.38,150.51c-9.92,2.54-21.1,13.31-28.35,14.88-9.14,1.98-19.71-2.65-29.96-5.22-3.11-.78-5.54-1.19-7.41-1.37,12.06-3.05,22.01,3.82,29.72,3.5,8.09-.33,17.02-8.92,26.27-11.89,3.14-1.01,6.4-.69,9.73.1Z"/>
        <path class="cls-6" d="M212.74,150.06c-8.92,4.66-13.06-5.95-20.84-9.42-8.92-3.99-15.2,8.45-17.84,6.3-2.64-2.15-3.8-11.4-13.88-16.19-5.72-2.72-16.77-3.31-25.25-3.31l.41-.41c3.55-.73,7.35-1.24,11.36-1.4,23.72-.99,28.74,16.85,28.74,16.85,0,0,6.21-8.26,17.45-4.3,11.24,3.97,7.27,8.92,16.19,11.57,1.16.34,2.38.43,3.65.32Z"/>
        <path class="cls-19" d="M452.93,128.35s62.45,55.76,87.24,48.16c24.78-7.6-130.94-81.33-87.24-48.16Z"/>
        <path class="cls-15" d="M93.04,185.03s-21.28,37.38,15.86,76.8c8.59,9.12,9.58,26.07-7.6,27.01-17.18.94-43.95-41.02-42.96-74.73.99-33.71,40.41-48.96,34.7-29.08Z"/>
        <path class="cls-17" d="M518.99,383.7s-35.96,7.93-45.22,20.16c-4.53,5.98,13.44,5.08,28.74-1.49,15.95-6.86,29.11-19.51,16.48-18.67Z"/>
        <path class="cls-17" d="M258.16,381.39s14-.33,26.33,4.46c12.33,4.79,14.97,19.5,2.75,21.31-12.23,1.82-40.07-14.48-38.5-21.15,1.16-4.91,9.42-4.63,9.42-4.63Z"/>
      </g>
      <path class="cls-5" d="M194.3,301.66l-7.91,27.43c-3.11-2.71-6.71-5.9-10.62-9.5l-1.72-3.2s3.01-35.17-6.93-49.26c9.52,6.65,14.06,33.25,14.06,33.25l-1.48,1.97h1.48s2.36,4.51,3.27,11.14c6.09-31.65.17-46.94,0-47.36.24.28,4.97,6.13,7.81,15.67,2.91,9.78,1.82,15.93,1.82,15.93l-2.36,3.91h2.56Z"/>
      <g>
        <g>
          <path class="cls-29" d="M434.1,328.64s2.59-2.31,4.49-4.78c.34-.44.65-.88.93-1.32l1.17,1.43-.4-2.25s8.06-2.82,10.97-10.59c-1.77,8.55-5.18,14.88-9.19,17.83-1.76,1.29-3.63,1.93-5.53,1.83-6.24-.33-2.43-2.15-2.43-2.15Z"/>
          <g class="cls-7">
            <path class="cls-24" d="M451.25,311.13c-.67,2.22-1.52,4.38-2.49,6.48-.98,2.1-2.1,4.14-3.44,6.04-1.34,1.89-2.91,3.66-4.84,5-1.9,1.36-4.27,2.14-6.65,2.01-.13,0-.23-.12-.22-.24,0-.13.12-.23.24-.22,0,0,0,0,0,0,2.26.16,4.54-.54,6.42-1.84,1.9-1.28,3.48-3,4.85-4.85,1.36-1.86,2.51-3.87,3.53-5.95,1-2.08,1.89-4.23,2.6-6.43Z"/>
          </g>
          <path class="cls-8" d="M434.1,328.64s2.59-2.31,4.49-4.78c.81,2.38,2.47,4.18,3.47,5.1-1.76,1.29-3.63,1.93-5.53,1.83-6.24-.33-2.43-2.15-2.43-2.15Z"/>
        </g>
        <path class="cls-5" d="M371.48,313.19s-18.63-17.45-15.61-40.81c1.91,10.81,9.79,23.72,9.79,23.72l-.98,2.92,3.5-.68s4.41-26.65-5.51-39.48c13.38,13.78,13.23,34.3,13.23,34.3l-2.52,3.78,2.52,1.1s-2.93,9.96,5.78,6.13c8.71-3.83,14.22-36.9,6.35-45.32,9.45,8.12,7.87,36,7.87,36.93s-4.09,4.67-4.09,4.67l3.15,2.25s-1.98,18.88-23.46,10.47Z"/>
        <path class="cls-5" d="M456.79,338.03s-6.47-6.06-5.42-14.18c.66,3.76,3.4,8.24,3.4,8.24l-.34,1.01,1.21-.24s1.53-9.26-1.91-13.72c4.65,4.79,4.6,11.92,4.6,11.92l-.88,1.31.88.38s-1.02,3.46,2.01,2.13c3.03-1.33,4.94-12.82,2.21-15.75,3.28,2.82,2.74,12.51,2.74,12.83s-1.42,1.62-1.42,1.62l1.09.78s-.69,6.56-8.15,3.64Z"/>
        <g>
          <path class="cls-39" d="M432.05,329.13l-5.26.37c3.79-3.41,3.23-6.67,2.66-8.17-.2-.54-.41-.85-.41-.85l2.48-.4-1.39-1.89s4.5-5.2,6.19-19.05c5.32,9.33,3.24,17.72.44,23.24-2.14,4.22-4.71,6.76-4.71,6.76Z"/>
          <g class="cls-7">
            <path class="cls-24" d="M436.32,299.13c.57,2.56.88,5.18,1.02,7.81.13,2.62.07,5.26-.26,7.88-.36,2.61-.99,5.18-1.96,7.65-1.03,2.44-2.48,4.69-4.26,6.67-.09.1-.23.1-.33.02-.1-.09-.1-.23-.02-.33,0,0,0,0,0,0h0c1.77-1.91,3.22-4.1,4.27-6.49.99-2.41,1.66-4.95,2.05-7.54.36-2.59.46-5.22.37-7.84-.11-2.62-.37-5.24-.9-7.81Z"/>
          </g>
          <path class="cls-8" d="M432.05,329.13l-5.26.37c3.79-3.41,3.23-6.67,2.66-8.17,2.76,1.71,5.59,1.46,7.31,1.04-2.14,4.22-4.71,6.76-4.71,6.76Z"/>
        </g>
        <path class="cls-30" d="M466.32,339.08h-85.26l13.66-11.09s18.19-9.36,25.78-7.41c7.59,1.95,6.38,8.33,6.38,8.33,0,0,.46-.51,1.23-1.11,1.69-1.31,4.89-3.1,8.13-1.16,4.62,2.75,3.89,6.39,3.86,6.56.15-.15,2.92-2.84,5.17-1.98,2.31.88,3.21,3.42,3.21,3.42,0,0,2.95-4.14,5.49-2.62,2.53,1.52,3.96,4.61,3.96,4.61,0,0,4.08-4.02,8.37,2.45Z"/>
        <path class="cls-8" d="M449.87,339.08h-68.8l13.66-11.09s18.19-9.36,25.78-7.41c7.59,1.95,6.38,8.33,6.38,8.33,0,0,.46-.51,1.23-1.11.16,1.38.18,2.81-.02,4.21,0,0,3.85-1.45,6.39.64,2.53,2.1,1.76,3.97,1.76,3.97,0,0,3.42-1.98,7.27,0,1.32.67,3.74,1.57,6.35,2.45Z"/>
      </g>
      <g>
        <path class="cls-28" d="M295.34,279.06v-93.56h-35.55v.32l-42.78,68.82-18.72,30.12,2.11,21.73h59.38v32.59h35.55v-32.59h15.61v-27.42h-15.61ZM259.79,279.06h-27.63l25.42-43.67,2.22-3.58v47.25Z"/>
        <path class="cls-34" d="M419.17,198.27c-9.35-11.32-22.54-16.98-39.55-16.98s-30.18,5.63-39.5,16.88c-9.32,11.25-13.98,27.25-13.98,47.99v28.06c0,20.6,4.68,36.56,14.03,47.89,9.35,11.32,22.57,16.98,39.66,16.98s30.08-5.62,39.4-16.88c9.32-11.25,13.98-27.25,13.98-47.99v-27.95c0-20.67-4.68-36.67-14.03-47.99ZM361.79,239.29c.21-10.27,1.71-17.93,4.48-22.99,2.78-5.07,7.23-7.6,13.34-7.6s10.83,2.73,13.72,8.18c2.88,5.45,4.32,13.69,4.32,24.73v37.97c-.07,11.04-1.54,19.14-4.43,24.31-2.88,5.17-7.35,7.76-13.4,7.76s-10.83-2.66-13.71-7.96c-2.72-5.01-4.16-12.75-4.31-23.23,0-.63-.01-1.27-.01-1.92v-39.24Z"/>
        <path class="cls-31" d="M545.53,279.06v-93.56h-35.54v.32l-61.49,98.93,2.11,21.73h59.38v32.59h35.54v-32.59h15.61v-27.42h-15.61ZM509.99,279.06h-27.64l25.42-43.67,2.22-3.58v47.25Z"/>
        <path class="cls-6" d="M288.73,185.5c-4.76,6.08-21.07,3.91-24.73,4.3-4.17.44-33.06,51.33-37.03,57.79-2.57,4.19-7.09,6.17-9.95,7.05l42.78-68.82v-.32h28.93Z"/>
        <path class="cls-6" d="M545.53,185.5v70.84c-9.1-7.56-4.09-63.38-5.53-65.23-1.54-1.98-20.49-.66-24.01-1.76-2.34-.73-4.23-2.65-5.22-3.86h34.76Z"/>
        <path class="cls-8" d="M387.12,320.44c-28.64,1.32-25.33-39.96-25.33-39.96v-.02c.17,10.48,1.6,18.23,4.32,23.23,2.88,5.31,7.45,7.96,13.71,7.96s10.51-2.59,13.4-7.76c2.88-5.17,4.36-13.27,4.43-24.31v-37.97c0-11.04-1.44-19.28-4.32-24.73-2.89-5.45-7.46-8.18-13.72-8.18,0,0,17.73-2.16,24.95,24.05,7.23,26.21,11.19,86.36-17.45,87.68Z"/>
        <path class="cls-38" d="M349.45,198.15s-11.9-8.59-13.22-22.03c8.59,2.42,13.22,12.85,13.22,12.85,0,0-2.2-9.58,0-16.12,6.39,9.21,4.63,16.7,0,25.29Z"/>
      </g>
      <g>
        <path class="cls-27" d="M587.09,275.95s.05.28-.34.68c-.28.29-.79.64-1.71.99-5.43,2.07-16.53-2.96-22.57-6.36-6.04-3.4-23.23-.61-34.81-2.18-11.57-1.57-16.49-7.85-26.9-10.4-10.42-2.55-49.25,8.63-51.4-.07-2.15-8.7,41.44-93.37,45.17-87.47,3.73,5.91,16.65,6.3,25.7,10.96,9.06,4.66,16.82,28.01,26.88,30.33,1.38.32,2.72.84,4,1.52,8.04,4.28,13.8,15.03,14,23.84.24,10.21,14.18,18.45,19.29,23.94,5.1,5.49,2.68,14.21,2.68,14.21Z"/>
        <path class="cls-6" d="M587.09,275.95s.05.28-.34.68c1.8-11.16-8.52-16.46-17.98-24.33-9.73-8.09-5.64-14.21-7.63-22.47-1.18-4.89-6.16-11.38-10.03-15.88,8.04,4.28,13.8,15.03,14,23.84.24,10.21,14.18,18.45,19.29,23.94,5.1,5.49,2.68,14.21,2.68,14.21Z"/>
        <g>
          <path class="cls-12" d="M627.91,329.41v3.3c-.57-.06-1.99.05-3.24.16-.77.07-1.48.15-1.89.19l-.3-2.8,1.3-.2,4.13-.64Z"/>
          <path class="cls-17" d="M586.87,274.48l-2.58,2.35c-.37.34-.23.94.24,1.09l2.18.69,5.04,5.52c.22.24.6.26.85.04l.83-.76c.24-.22.26-.6.04-.85l-5.04-5.52-.49-2.24c-.11-.49-.7-.67-1.07-.34Z"/>
          <path class="cls-22" d="M606.71,277.99c-.65.86-1.52,1.99-2.41,3.11-.33.42-.67.84-1,1.24-1.38,1.7-2.64,3.11-3.03,3.18-.99.16-6.57-3.02-7.39-3.02s-2.68,1.36-3.18,1.24c-.5-.13-3.22-2.64-3.14-3.26.08-.62,2.52-2.77,3.72-3.1.33-.09,1.07.01,1.97.21,0,0,.05.01.14.03,2.34.51,5.71,1.57,6.24,1.31.26-.13.82-1.01,1.42-2.09.21-.38.43-.79.64-1.2.27-.51.53-1.03.77-1.49.24-.48.45-.91.61-1.23.51.75,1.33,1.76,2.15,2.69,1.02,1.15,2.04,2.16,2.5,2.37Z"/>
          <path class="cls-25" d="M629.43,284.56c0,1.82-.03,3.57-.14,4.99-.44,5.66-.88,10.28-2.81,10.39-1.93.11-2.31-15.31-2.21-16.25.02-.18.04-.57.05-1.08.05-1.68.06-4.69.09-5.98,0-.32.01-.54.02-.6l.36-.23,4.21-2.69s.25,3.65.36,7.81c.02.57.03,1.14.04,1.72,0,.64.02,1.27.02,1.91Z"/>
          <path class="cls-8" d="M629.43,284.56c-.98.85-2.55,1.94-4.17,1.97-2.64.06,1.22-5.36,2.1-5.48.34-.05,1.15-.09,2-.12.02.57.03,1.14.04,1.72,0,.64.02,1.27.02,1.91Z"/>
          <path class="cls-17" d="M629.41,282.66c-1.08.39-2.55.61-4.4.22-.26-.06-.49-.14-.68-.25-1.62-.91-.96-3.58.09-5.98.12-.28.25-.56.38-.83l4.21-2.69s.32,4.71.4,9.53Z"/>
          <path class="cls-37" d="M620.48,252.17c-.05.57-.35,1.28-.78,1.99-.54.9-1.28,1.79-2,2.37-.55.45-1.08.71-1.49.65-1.35-.19-3.03-2.37-3.06-2.78-.02-.41,1.45-.57,1.26-1.78-.19-1.21-.96-1.43-1.54-1.21-.58.22-1.28,1.48-1.25,2.67-.39-.05-1.12-1.52-2.48-2.35-.38-.23-.8-.42-1.27-.51-.6-.12-1.28-.08-2.06.18-.36-4.38,2.29-6.3,4.32-5.53,0,0-.74-1.46-1.82-1.76,2.48.36,3.08,2.45,3.08,2.45,0,0,.69-2.95,3.83-3.33,3.14-.38,3.75,3.75,3.75,3.75,0,0,.65-2.03.37-3.23.56,1.63-.12,4.3-.12,4.3,0,0,1.52.41,1.87,2.37-1.27-.99-1.35-.89-1.35-.89,0,0,.91.8.75,2.65Z"/>
          <path class="cls-18" d="M617.7,256.53c-.25.69-.48,1.33-.58,1.56-.26.58-3.47,3.28-5.78.17-1.94-2.61-2.18-5.64-2.21-6.54,1.35.83,2.09,2.3,2.48,2.35-.03-1.19.67-2.45,1.25-2.67.58-.22,1.35,0,1.54,1.21.19,1.21-1.28,1.37-1.26,1.78.03.41,1.71,2.59,3.06,2.78.41.06.94-.2,1.49-.65Z"/>
          <path class="cls-37" d="M619.3,243.65c-.06-.16-.14-.32-.23-.45.1.12.18.27.23.45Z"/>
          <path class="cls-39" d="M630.44,272.58c-.32.61-.67,1.14-1.02,1.61-.11.15-.22.29-.32.43-.99,1.24-1.85,1.87-1.85,1.87,0,0,0,.04.02.11.02.09.04.24.08.43.07.45.19,1.15.31,1.98.02.14.04.28.06.43.05.39.1.81.15,1.24.03.25.05.49.08.74,0,.14.02.29.04.43.06.67.09,1.35.1,1.98,0,.14,0,.29,0,.43,0,.76-.06,1.45-.19,1.98-.04.16-.08.3-.13.43-.06.16-.13.29-.22.4-.1.13-.26.24-.49.33-1.46.65-5.33.69-9.16.48h0c-3.31-.18-6.6-.53-8.25-.82-.49-.08-.88-.22-1.2-.4-.22-.12-.39-.26-.54-.43-.09-.09-.17-.19-.23-.3-.3-.47-.4-1.04-.38-1.69,0-.14,0-.28.02-.43.05-.59.19-1.22.34-1.88,0-.04.02-.07.03-.11.03-.14.07-.28.11-.43.17-.66.36-1.34.51-1.98.02-.1.05-.2.07-.3,0-.04.02-.08.03-.13.17-.8.28-1.45.35-1.98.02-.15.04-.3.05-.43.13-1.26.01-1.65.01-1.65,0,0-.34.84-.76,1.65-.08.15-.16.29-.25.43-.32.54-.65.98-.92,1-.04,0-.09,0-.16-.04-.25-.12-.67-.47-1.17-.96-.13-.13-.28-.28-.43-.43-.29-.3-.6-.64-.9-.98-.29-.32-.58-.66-.85-1-.12-.14-.24-.29-.35-.43-.37-.46-.7-.89-.95-1.27-.19-.28-.34-.53-.43-.72-.06-.13-.09-.22-.1-.29,0-.03,0-.08,0-.13.05-.33.28-1.05.65-1.98.06-.13.11-.28.17-.43.25-.6.54-1.28.87-1.98.07-.14.14-.28.21-.43.31-.65.65-1.32,1.02-1.98.08-.14.16-.29.24-.43.39-.69.8-1.36,1.23-1.98.1-.14.2-.29.3-.43.55-.77,1.13-1.45,1.7-1.98.17-.16.35-.31.52-.43.1-.07.19-.14.29-.2.78-.5,1.58-.89,2.35-1.18,2.68-1.02,4.97-.92,4.97-.92,1.34,0,2.65.26,3.9.76.93.38,1.83.89,2.69,1.53.19.14.37.28.55.43.69.57,1.36,1.23,1.99,1.98.12.14.24.28.35.43.49.61.96,1.27,1.41,1.98.09.14.18.28.26.43.38.63.73,1.29,1.07,1.98.07.14.14.28.2.43.3.64.58,1.29.85,1.98.05.14.11.28.16.43.24.64.46,1.3.68,1.98.04.13.08.27.13.41,0,0,0,.01,0,.02.04.13.07.25.11.37Z"/>
          <g>
            <path class="cls-6" d="M623.21,260.16h-15.28c.17-.16.35-.31.52-.43h14.21c.19.14.37.28.55.43Z"/>
            <path class="cls-6" d="M625.56,262.56h-19.63c.1-.14.2-.29.3-.43h18.98c.12.14.24.28.35.43Z"/>
            <path class="cls-6" d="M627.23,264.97h-22.77c.08-.14.16-.29.24-.43h22.27c.09.14.18.28.26.43Z"/>
            <path class="cls-6" d="M628.51,267.38h-25.28c.07-.14.14-.28.21-.43h24.86c.07.14.14.28.2.43Z"/>
            <path class="cls-6" d="M629.52,269.8h-27.34c.06-.13.11-.28.17-.43h27c.05.14.11.28.16.43Z"/>
            <path class="cls-6" d="M630.33,272.21h-28.7c-.06-.13-.09-.22-.1-.29,0-.03,0-.08,0-.13h28.66c.04.13.08.27.13.41,0,0,0,.01,0,.02Z"/>
            <path class="cls-6" d="M629.43,274.19c-.11.15-.22.29-.32.43h-25.75c-.12-.14-.24-.29-.35-.43h26.42Z"/>
            <path class="cls-6" d="M605.11,276.6h2.92c-.08.15-.16.29-.25.43h-2.25c-.13-.13-.28-.28-.43-.43Z"/>
            <path class="cls-6" d="M627.34,277.03h-18.61c.02-.15.04-.3.05-.43h18.48c.02.09.04.24.08.43Z"/>
            <path class="cls-6" d="M627.71,279.43h-19.42c.02-.1.05-.2.07-.3,0-.04.02-.08.03-.13h19.26c.02.14.04.28.06.43Z"/>
            <path class="cls-6" d="M627.97,281.84h-20.3c.03-.14.07-.28.11-.43h20.15c0,.14.02.29.04.43Z"/>
            <path class="cls-6" d="M628.07,283.83c0,.14,0,.29,0,.43h-20.79c0-.14,0-.28.02-.43h20.77Z"/>
            <path class="cls-6" d="M627.88,286.24c-.04.16-.08.3-.13.43h-19.32c-.22-.12-.39-.26-.54-.43h19.99Z"/>
          </g>
          <path class="cls-17" d="M628.32,326.66c-.91.58-7.02,1.24-7.02,1.24l-.19-1.11-1.13-6.66s0-.02,0-.03l-2.65-15.75-2.68,19.66-.79,5.79s-7.52.41-7.52-1.4c0-.22.02-1.03.06-2.28.22-8.02,1.06-34.25,1.26-40.17.34.55.96.95,1.97,1.12.09.01.19.03.28.05,3.84.61,14.48,1.47,17.13.29.12.96.23,2.48.33,4.39.41,7.64.71,21.36.86,29.12.06,3.48.1,5.76.1,5.76Z"/>
          <path class="cls-8" d="M619.98,320.1l-2.65-15.75s.72-6.33.99-7.05c.28-.71,2.21-.16,3.03-.71.44,1.05-2.31,2.37-2.54,5.67-.16,2.38.68,12.4,1.16,17.84Z"/>
          <path class="cls-4" d="M609.14,289.36s-.25,3.59,2.68,5.33"/>
          <g class="cls-7">
            <g>
              <line class="cls-10" x1="609.76" y1="294.16" x2="609.73" y2="294.86"/>
              <line class="cls-11" x1="609.66" y1="296.24" x2="608.26" y2="325.99"/>
              <line class="cls-10" x1="608.22" y1="326.68" x2="608.19" y2="327.37"/>
            </g>
          </g>
          <line class="cls-1" x1="620.03" y1="297.58" x2="622.68" y2="325.89"/>
          <path class="cls-4" d="M622.27,289.93s-.3,3.46,0,4.12c.3.66,1.59,1.23,1.87,1.37.28.14,1.53-.97,1.59-1.69.06-.72.14-3.66.14-3.66,0,0-2.15-.42-3.6-.14Z"/>
          <path class="cls-8" d="M628.32,326.66c-.91.58-7.02,1.24-7.02,1.24l-.19-1.11c1.78-1.01,5.29-3.24,7.11-5.89.06,3.48.1,5.76.1,5.76Z"/>
          <path class="cls-26" d="M628.68,329.29l-.77.12-5.43.85-.38.06c-.8.13-1.54-.42-1.67-1.21l-.02-.12c-.12-.79.42-1.54,1.21-1.66l6.59-1.03c.8-.13,1.54.42,1.66,1.21l.02.12c.13.79-.42,1.54-1.21,1.66Z"/>
          <path class="cls-8" d="M614.65,324.01l-.79,5.79s-7.52.41-7.52-1.4c0-.22.02-1.03.06-2.28,1.77-.13,5.86-.6,8.25-2.1Z"/>
          <path class="cls-26" d="M614.54,330.17v.13c-.09.8-.8,1.39-1.6,1.32h-.04s-5.74-.54-5.74-.54l-.86-.08c-.8-.07-1.4-.78-1.32-1.59v-.12c.09-.8.8-1.39,1.6-1.32l6.64.61c.8.07,1.39.78,1.32,1.59Z"/>
          <path class="cls-8" d="M627.36,291.78c-9.16,1.23-15.38-2.98-17.46-4.67,3.84.61,14.48,1.47,17.13.29.12.96.23,2.48.33,4.39Z"/>
          <path class="cls-8" d="M608.36,279.13c.71-3.31.44-4.19.44-4.19,0,0-1.21,3.03-1.93,3.08-.33.03-1.5-1.11-2.66-2.42,1-.25,2.54-.76,3.34-1.66,1.24-1.4,1.11-7.39,1.59-7.44.48-.04,1.58,11.07-1.49,15.43.23-.94.52-1.9.72-2.82Z"/>
          <path class="cls-8" d="M630.44,272.58c-1.38,2.59-3.19,3.91-3.19,3.91,0,0-1.63-8.58-2.12-9.41-.39-.66.16-1.35,1.06,1.57.69,2.26,2.52,3.98,4.14,3.55.04.13.08.26.12.39Z"/>
          <path class="cls-8" d="M627.52,287.06c-.1.13-.26.24-.49.33-1.46.65-5.33.69-9.16.48,2.62-.35,8.89-1.74,9.98-7.2.28,2.54.4,5.48-.33,6.39Z"/>
          <path class="cls-8" d="M619.97,258.19c-.34.41-.91.59-1.86.37-1.87-.44-4.35.44-5.65.25-.67-.1-1.1-.3-1.37-.46,2.68-1.02,4.97-.92,4.97-.92,1.34,0,2.65.26,3.9.76Z"/>
          <path class="cls-17" d="M606.71,277.99c-.65.86-1.52,1.99-2.41,3.11-1.86-1.15-3.41-3.06-4.26-4.25.76-1.37,1.59-3.05,2.02-3.92.51.75,1.33,1.76,2.15,2.69,1.02,1.15,2.04,2.16,2.5,2.37Z"/>
          <path class="cls-8" d="M606.71,277.99c-.65.86-1.52,1.99-2.41,3.11-.33.42-.67.84-1,1.24.1-3.49-1.12-6.63-1.85-8.18.24-.48.45-.91.61-1.23.51.75,1.33,1.76,2.15,2.69,1.02,1.15,2.04,2.16,2.5,2.37Z"/>
          <path class="cls-6" d="M600.68,275.65c0,1.03-.95,2.48-1.23,2.93-.33.51-.06,2.79-.37,2.52-.31-.27-.44-1.38-.85-1.75-.38-.34-4.98-1.5-5.85-1.72,2.34.51,5.71,1.57,6.24,1.31.26-.13.82-1.01,1.42-2.09.21-.38.43-.79.64-1.2Z"/>
          <path class="cls-8" d="M619.7,254.16c-.54.9-1.28,1.79-2,2.37-.55.45-1.08.71-1.49.65-1.35-.19-3.03-2.37-3.06-2.78-.02-.41,1.45-.57,1.26-1.78-.19-1.21-.96-1.43-1.54-1.21-.58.22-1.28,1.48-1.25,2.67-.39-.05-1.12-1.52-2.48-2.35-.38-.23-.8-.42-1.27-.51.74-.1,1.57-.12,2.12.12,1.24.52,1.28,1.02,1.28,1.02,0,0,.18-1.79,2.16-2.16,1.69-.31,3.02,4.28,6.28,3.97Z"/>
          <path class="cls-20" d="M613.87,339.08h-13.14s-.13-.41-.13-.94c0-.69.22-1.57,1.27-1.99.37-.15.77-.33,1.19-.53,1.65-.78,3.42-1.81,3.71-2.41,0,0,.1.05.26.12.33.15.95.4,1.55.56.31.08.62.14.89.14.74.02,2.16-.38,3.06-.49.41-.06.71-.05.79.08.18.3.39,3.04.49,4.51.04.56.06.94.06.94Z"/>
          <path class="cls-23" d="M612.9,331.61c-.11.61-.25,1.35-.38,1.94-.65.08-1.59.32-2.33.43-.28.05-.53.07-.73.06-.81-.02-1.94-.48-2.44-.7,0-.66.08-1.63.14-2.26l2.25.21,3.49.32Z"/>
          <path class="cls-20" d="M629.62,339.08h-7.93s-.14-.37-.12-.94c0-.37.09-.83.32-1.32.57-1.27.27-3.33.55-3.72,0,0,.13-.01.35-.04,1.06-.12,4.2-.45,5.13-.36.08,0,.14.02.19.04.53.17,1.14,3.63,1.4,5.4.06.45.11.79.12.94Z"/>
          <path class="cls-8" d="M613.8,338.14c.04.56.06.94.06.94h-13.14s-.13-.41-.13-.94h13.21Z"/>
          <path class="cls-8" d="M629.62,339.08h-7.93s-.14-.37-.12-.94h7.93c.06.45.11.79.12.94Z"/>
          <path class="cls-21" d="M608.57,333.89c-1.22.81-3.49,2.24-4.26,2.25-.56,0-.98-.26-1.26-.52,1.65-.78,3.42-1.81,3.71-2.41,0,0,.1.05.26.12.33.15.95.4,1.55.56Z"/>
          <path class="cls-8" d="M612.9,331.61c-.11.61-.25,1.35-.38,1.94-.65.08-1.59.32-2.33.43l-.77-2.69,3.49.32Z"/>
          <path class="cls-8" d="M627.91,329.41v3.3c-.57-.06-1.99.05-3.24.16l-.89-2.81,4.13-.64Z"/>
        </g>
      </g>
      <g>
        <path class="cls-33" d="M179.79,275.95s-2.41-8.73,2.69-14.21,19.04-13.73,19.29-23.94,7.94-23.03,18-25.36c10.06-2.33,17.82-25.67,26.88-30.34,9.06-4.66,21.97-5.05,25.7-10.96,3.73-5.9,47.32,78.77,45.17,87.47-2.15,8.7-40.99-2.48-51.4.07-10.41,2.55-15.33,8.83-26.9,10.4-11.58,1.57-28.78-1.23-34.81,2.18-6.03,3.4-17.13,8.43-22.57,6.36-2.19-.84-2.05-1.67-2.05-1.67Z"/>
        <g>
          <path class="cls-17" d="M181.9,277.61l-2.46-2.48c-.35-.35-.95-.19-1.08.29l-.6,2.21-5.3,5.27c-.23.23-.24.61,0,.85l.79.79c.23.24.61.24.85,0l5.3-5.27,2.21-.59c.48-.13.64-.73.29-1.08Z"/>
          <path class="cls-35" d="M156.33,251.32s-.06.98-.22,2.22c-.21,1.6-.62,3.65-1.33,4.68-.02.04-.05.07-.07.11-1.06,1.4-3.09,1.06-4.12-.68.61-.75.88-1.72.47-2.1-.84-.8-.62-3.05.59-2.78,1.21.28,1.4,3.53,1.84,3.44.34-.06,2.09-2.9,2.83-4.89Z"/>
          <path class="cls-17" d="M156.66,249.93c0,.35-.13.84-.33,1.4-.12.32-.27.68-.43,1.03-.84,1.82-2.11,3.81-2.4,3.87-.44.08-.64-3.17-1.84-3.44-1.21-.27-1.44,1.98-.59,2.78.41.38.14,1.35-.47,2.1-.65.81-1.71,1.38-2.77.74-2.03-1.24-2.39-9-2.37-9.61,0,0-.04-.51.13-1.19.24-.95.88-2.24,2.63-3,3-1.29,8.46-1.02,8.46,5.33Z"/>
          <path class="cls-16" d="M172.43,282.33c-.01.08-.03.16-.05.23-.09.35-.2.6-.32.64-.12.04-.72-.01-1.59-.13-1.22-.16-2.96-.44-4.6-.75-1.96-.38-3.77-.79-4.39-1.11-.54-.28-1.33-1.32-2.11-2.53-.2-.32-.41-.65-.61-.98-.97-1.59-1.82-3.21-2.04-3.64-.04-.07-.06-.11-.06-.11,0,0,0,.04,0,.11-.03.43-.16,2.04-.71,3.64-.12.33-.25.66-.4.98-.13.29-.29.57-.45.83-.52.81-.41,1.81-.07,2.82.04.13.09.25.13.37h0c.08.21.16.41.25.61.15.36.32.7.48,1.03.48,1,.9,1.87.76,2.38-.02.07-.07.15-.16.23-.06.06-.13.12-.23.19-.34.24-.87.51-1.56.8-3.91,1.63-12.66,3.5-16.46,0-.06-.06-.13-.12-.19-.18l-.04-.04c-.24-.25-.34-.5-.33-.76,0-.36.2-.74.49-1.18.44-.66,1.08-1.45,1.62-2.47.16-.31.31-.63.44-.98.2-.53.36-1.12.44-1.77.08-.64.14-1.26.19-1.87.03-.33.05-.66.06-.98.07-1.27.09-2.48.07-3.64,0-.33,0-.66-.02-.98-.03-1.29-.09-2.51-.13-3.64-.01-.33-.02-.66-.03-.98-.04-1.33-.04-2.55.07-3.64.04-.34.08-.67.15-.98.28-1.47.85-2.69,1.95-3.65.04-.04.08-.07.12-.11.39-.32.77-.62,1.13-.87.41-.3.79-.55,1.14-.76,2.36-1.42,3.56-1.22,3.56-1.22,0,0,.72.05,1.81.23,1.05.19,2.45.5,3.84,1.04.17.06.33.13.5.2.36.15.71.32,1.05.51.24.13.46.25.69.39.28.19.56.38.82.58.66.51,1.23,1.12,1.66,1.84.33.54.66,1.15.99,1.81.16.32.32.64.48.98.54,1.15,1.06,2.41,1.55,3.64.13.33.26.66.38.98.51,1.31.95,2.57,1.33,3.64.12.35.23.68.33.98.36,1.06.61,1.84.7,2.15.13.41.98.8,2.06,1.15.35.12.73.23,1.12.34.75.21,1.53.41,2.22.59.53.14,1,.27,1.36.39.38.13.63.23.68.33.02.04.04.09.06.15.15.58.08,2.16-.13,3.16Z"/>
          <g class="cls-7">
            <path class="cls-24" d="M156.06,259.43c.3.16.58.33.85.51h-13.31c.24-.19.46-.36.68-.51h11.78M156.12,259.2h-11.91c-.36.25-.73.55-1.13.87-.04.03-.08.07-.12.11h14.66c-.47-.37-.97-.7-1.51-.98h0Z"/>
            <path class="cls-24" d="M160.14,264.06c.08.17.17.34.25.52h-19.26c.02-.19.05-.36.08-.52h18.93M160.28,263.83h-19.26c-.06.32-.11.64-.15.98h19.89c-.16-.34-.32-.67-.48-.98h0Z"/>
            <path class="cls-24" d="M162.15,268.69c.07.17.14.35.2.52h-21.3c0-.17-.01-.34-.02-.52h21.12M162.31,268.46h-21.51c0,.32.02.65.03.98h21.86c-.12-.32-.25-.65-.38-.98h0Z"/>
            <path class="cls-24" d="M163.86,273.31l.12.37.05.15h-22.82c0-.17,0-.35-.01-.52h22.65M164.02,273.08h-23.06c.01.32.02.65.02.98h23.37c-.1-.31-.22-.63-.33-.98h0Z"/>
            <path class="cls-24" d="M155.61,277.94c-.07.19-.14.36-.21.52h-14.3c.01-.17.02-.35.03-.52h14.48M155.95,277.71h-15.03c-.01.32-.04.65-.06.98h14.7c.15-.32.28-.65.4-.98h0Z"/>
            <path class="cls-24" d="M168.21,277.94c.58.16,1.18.32,1.74.47l.2.05h-10.64c-.11-.17-.22-.34-.33-.52h9.03M168.24,277.71h-9.48c.2.33.41.66.61.98h12.44c-.36-.12-.83-.25-1.36-.39-.69-.18-1.46-.38-2.22-.59h0Z"/>
            <path class="cls-24" d="M154.86,282.57s.03.09.05.14l.03.08s0,.02.02.03c.03.09.07.18.11.27h-14.9c.08-.17.16-.34.22-.52h14.47M155.02,282.33h-14.8c-.13.35-.28.68-.44.98h15.63c-.09-.2-.18-.4-.25-.61h0c-.05-.13-.09-.25-.13-.38h0Z"/>
            <path class="cls-24" d="M172.14,282.57c-.09.33-.16.41-.15.42-.02,0-.05,0-.08,0-.23,0-.7-.05-1.41-.14-.58-.07-1.24-.17-1.95-.28h3.59M171.99,282.98h0,0M172.43,282.33h-6.56c1.64.31,3.38.59,4.6.75.67.09,1.18.14,1.44.14.07,0,.12,0,.15-.01.13-.04.23-.29.32-.64.02-.07.04-.15.05-.23h0Z"/>
            <path class="cls-24" d="M155.76,287.19c-.29.16-.66.34-1.09.52h-16.33s-.08-.07-.12-.11l-.16.16.13-.2c-.12-.12-.2-.24-.24-.37h17.81M156.5,286.96h-18.82c0,.26.09.51.33.76l.04.04c.06.06.13.13.19.18h16.46c.69-.28,1.22-.56,1.56-.8.09-.06.17-.13.23-.19h0Z"/>
          </g>
          <path class="cls-17" d="M157.93,330.29c-.06.19-.14.35-.24.51-1.1,1.89-4.1,2.08-5.21,1.72-.15-.04-.26-.1-.33-.16-.66-.58-1.24-5.37-4.79-32.55,0,.07,0,.14,0,.21v.02c-.06,3.86-.87,10.72-1.73,17.04-.94,6.97-1.93,13.29-2.06,14.28-.04.32-.19.62-.41.87-1,1.14-3.51,1.42-5-.39-.12-.15-.23-.31-.34-.48.62-4.96.87-20.41-.13-29.57-.38-3.44-.38-6.41-.25-8.77.13-2.46.43-4.26.63-5.26,3.76,3.82,13.02,1.76,16.88.09.58-.25,1.03-.49,1.34-.7,1.07,4.36.66,17.27,1.66,43.15Z"/>
          <path class="cls-8" d="M155.07,258.7c-6.39.2-8.21,10.13-8.21,10.13l-1.5-10.39c2.36-1.42,3.56-1.22,3.56-1.22,0,0,3.18.2,6.15,1.47Z"/>
          <path class="cls-20" d="M165.23,338.99h-12.72c-.05-.35-.07-.9-.09-1.54,0-.22,0-.45,0-.69-.01-1.51.04-3.29.07-4.25.3.1.73.15,1.23.15.99,0,2.23-.26,3.14-.94.34-.25.63-.55.85-.93.77,1.68,2.38,2.82,3.89,3.64,1.33.73,2.58,1.21,3.09,1.58.49.35.67.9.72,1.43.07.79-.17,1.54-.17,1.54Z"/>
          <path class="cls-20" d="M143.3,337.45c-.04.96-.1,1.54-.1,1.54h-7.27c.09-.52.2-1.04.33-1.54.61-2.52,1.5-4.7,1.89-5.6.47.57,1.05.94,1.65,1.14.7.22,1.44.21,2.07.03.52-.15.97-.42,1.28-.77.22,2.09.2,3.97.15,5.21Z"/>
          <path class="cls-13" d="M179.22,280.64c-.14.8-3,3.31-3.86,3.06-.14-.04-.29-.11-.43-.19-.6-.33-1.26-.88-2.55-.95.25-.97.34-2.77.18-3.39.16-.08.35-.17.57-.26.95-.43,2.29-.97,2.85-.88.91.14,3.38,1.82,3.25,2.61Z"/>
          <path class="cls-8" d="M156.66,286.73c-.03.12-.17.26-.39.42-2.29,1.63-13.89,5.01-18.21.62l-.04-.04c-.57-.59-.35-1.18.15-1.94.63.5,1.74,1.04,3.7,1.36,3.86.63,10.71-.41,14.03-2.8.48,1,.9,1.87.76,2.38Z"/>
          <path class="cls-8" d="M172.38,282.57c-.09.35-.2.6-.32.64-.12.04-.72-.01-1.59-.13.6-2.29.24-4,0-4.78,1.08.29,1.93.53,2.04.72.02.04.04.09.06.15.17.63.07,2.42-.18,3.39Z"/>
          <path class="cls-8" d="M155.16,282.7c-1.47-1.44-.84-2.59,0-5.45.84-2.86-.84-4.08-1.11-7.27-.28-3.19.06-5.01,2.04-7.11-2.37,6.22.57,11.07.57,11.07,0,0-.13,3.36-1.57,5.56-.58.9-.37,2.05.06,3.19Z"/>
          <path class="cls-8" d="M155.9,252.35c-.84,1.82-2.11,3.81-2.4,3.87-.44.08-.64-3.17-1.84-3.44-1.21-.27-1.44,1.98-.59,2.78.41.38.14,1.35-.47,2.1-.65.81-1.71,1.38-2.77.74-2.03-1.24-2.39-9-2.37-9.61,0,0-.04-.51.13-1.19,1.01-.05,3.26.08,3.8,2.11.52,1.96.52,2.92.48,3.29.11-.57.58-2.27,2.45-1.89,1.13.23,2.38,1.02,3.58,1.24Z"/>
          <path class="cls-17" d="M147.64,249.62s-.83-1.73-3.47-1.24c-2.64.5-3.84,3.88-2.64,9.38.04-4.87.74-5.99.74-5.99,0,0-1.12,2.97.33,9.67s2.27,13.18-1.32,16.03c7.15-4.05,7.56-8.8,7.15-14.58-.41-5.78.87-10.86-.78-13.26Z"/>
          <path class="cls-8" d="M151.94,255.51c-.05.41,1.34,2.35,2.84,2.72-.02.04-.05.07-.07.11-.04.06-.08.11-.13.16-1.39-.54-2.79-.85-3.84-1.04.51-.71.7-1.55.32-1.9-.84-.8-.62-3.05.59-2.78,1.21.28,1.4,3.53,1.84,3.44.34-.06,2.09-2.9,2.83-4.89,0,0-.06.98-.22,2.22-.4.73-1.28,2.24-1.96,2.83-.91.79-1.26-.19-1.51-.78-.25-.6-.64-.56-.7-.08Z"/>
          <path class="cls-3" d="M139.51,292.92s-.2,3.74.27,4.74c.47,1.01,1.95,1.71,1.95,1.71,0,0,1.83-.77,2.3-1.87.53-2.22.42-4.87.42-4.87,0,0-3.65-.95-4.95.29Z"/>
          <path class="cls-4" d="M155.16,289.93s.15,3.08-2.49,4.62"/>
          <line class="cls-4" x1="154.53" y1="292.58" x2="156.66" y2="329.63"/>
          <path class="cls-8" d="M147.35,300.02v.02c-.06,3.86-.87,10.72-1.73,17.04-.13-7.38-1.17-16.53-.83-18.02,1.09,1.05,2.55.95,2.55.95Z"/>
          <line class="cls-4" x1="145.36" y1="300.97" x2="142.31" y2="331.2"/>
          <path class="cls-8" d="M154.94,287.85c-1.8,1.77-7.38,6.16-17.5,5.17.13-2.46.43-4.26.63-5.26,3.76,3.82,13.02,1.76,16.88.09Z"/>
          <path class="cls-8" d="M136.25,337.45h7.04c-.04.96-.1,1.54-.1,1.54h-7.27c.09-.52.2-1.04.33-1.54Z"/>
          <path class="cls-8" d="M165.23,338.99h-12.72c-.05-.35-.07-.9-.09-1.54h12.98c.07.79-.17,1.54-.17,1.54Z"/>
          <path class="cls-6" d="M161.59,334.44s0,0,0,0c-2.29,1.11-3.94-1.19-4.73-2.72.34-.25.63-.55.85-.93.77,1.68,2.38,2.82,3.89,3.64Z"/>
          <path class="cls-8" d="M141.86,333.01c-.24,3.37-1.41,3.5-2.03,3.15-.56-.32-.18-2.48-.04-3.18.7.22,1.44.21,2.07.03Z"/>
          <path class="cls-8" d="M152.41,336.77c-.01-1.51.04-3.29.07-4.25.3.1.73.15,1.23.15.14,1.09.27,3.58-1.3,4.1Z"/>
          <path class="cls-8" d="M172.38,282.57c.25-.97.34-2.77.18-3.39.16-.08.35-.17.57-.26.64.87,1.69,2.6,1.81,4.61-.6-.33-1.26-.88-2.55-.95Z"/>
          <path class="cls-6" d="M167.12,277.36c-2.03.2-3.36,2.29-3.54,1.87-.2-.5.91-1.53.77-2.19-.14-.66-3.2-8.59-4.9-12.47-1.03-2.35-2.03-4.03-2.65-4.98.28.19.56.38.82.58.66.51,1.23,1.12,1.66,1.84.33.54.66,1.15.99,1.81.16.32.32.64.48.98.54,1.15,1.06,2.41,1.55,3.64.13.33.26.66.38.98.51,1.31.95,2.57,1.33,3.64.12.35.23.68.33.98.36,1.06.61,1.84.7,2.15.13.41.98.8,2.06,1.15Z"/>
        </g>
      </g>
      <path class="cls-17" d="M650.38,341.03c-.66-.5-21.48-56.67,2.48-88.73-3.3,22.64-1.49,41.14-1.49,41.14l-3.14,3.14,3.47.99s2.34,31.42,3.47,35.05c-2.55-23.48,3.76-37.2,3.76-37.2,0,0-1.11,16.66,1.04,22.79l-1.66,2.21,1.66-.34s-1.16,10.08,0,13.11c0,0,13.38-40,7.1-57.56,8.26,12.84,5.95,34.27,5.95,34.27l-2.15.85,1.32.96s-3.47,22.86-11.4,29.3"/>
      <g>
        <path class="cls-5" d="M510.11,334.41s-18.55-1.68-26.01,3.53c3.53-5,17.58-7.33,17.58-7.33l1.04.78v-.78s2.39-1.24,5.89-1.7c-16.92-3.35-24.99-.13-24.99-.13,0,0,3.13-2.58,8.29-4.08s8.41-.92,8.41-.92l2.05,1.26v-1.35s17.99,5.28,17.99,5.28"/>
        <path class="cls-9" d="M581.54,335.42s-1.98-12.56,8.26-21.26c-.11,10.13-2.95,18.84-8.26,21.26Z"/>
        <g>
          <path class="cls-39" d="M512.5,327.15l-2.02,4.87c-1.36-4.91-4.53-5.86-6.13-6.02-.57-.06-.95-.01-.95-.01l.75-2.4-2.31.4s-2.65-6.35-14.3-14.03c10.72-.61,17.31,4.99,21,9.96,2.82,3.8,3.95,7.23,3.95,7.23Z"/>
          <g class="cls-7">
            <path class="cls-24" d="M487.55,309.96c2.55.63,5.03,1.53,7.44,2.56,2.41,1.05,4.74,2.29,6.94,3.74,2.18,1.48,4.2,3.2,5.97,5.16,1.73,2.01,3.1,4.31,4.07,6.78.05.12-.01.25-.13.3-.12.05-.25-.01-.3-.13,0,0,0,0,0,0h0c-.92-2.44-2.23-4.72-3.9-6.72-1.72-1.96-3.7-3.69-5.84-5.2-2.16-1.48-4.47-2.74-6.85-3.83-2.39-1.07-4.86-2-7.4-2.67Z"/>
          </g>
          <path class="cls-8" d="M512.5,327.15l-2.02,4.87c-1.36-4.91-4.53-5.86-6.13-6.02,2.76-1.71,3.8-4.36,4.19-6.08,2.82,3.8,3.95,7.23,3.95,7.23Z"/>
        </g>
        <g>
          <path class="cls-36" d="M589.8,303.8c-19.17,15.75-24.12,23.58-24.12,23.58l-3.42-1.49s0,.11,0,.29c.02.85.08,3.33,0,4.16-.07.71-6.91,4.39-10.8,6.43-1.56.82-2.64,1.37-2.64,1.37l-3.2-3.2.32-.63,1.66-3.24s4.37-6.3,11.85-12.85c7.44-6.53,17.97-13.32,30.33-14.42Z"/>
          <g class="cls-7">
            <path class="cls-24" d="M547.56,336.94c2.6-3.79,5.47-7.37,8.5-10.8,3.05-3.42,6.27-6.69,9.74-9.68,3.46-3,7.17-5.73,11.17-7.97,3.99-2.24,8.31-3.94,12.83-4.69-4.51.79-8.82,2.52-12.78,4.79-3.97,2.27-7.64,5.02-11.07,8.04-3.44,3.01-6.62,6.3-9.63,9.74-2.99,3.45-5.83,7.05-8.37,10.83h0c-.07.11-.22.14-.32.07-.11-.07-.13-.22-.06-.32h0Z"/>
          </g>
          <path class="cls-8" d="M562.26,330.34c-.07.71-6.91,4.39-10.8,6.43-2.12-.79-4.06-1.71-5.52-2.46l1.66-3.24s4.37-6.3,11.85-12.85c.45,2.32,1.3,5.55,2.8,7.96.02.85.08,3.33,0,4.16Z"/>
        </g>
        <g>
          <path class="cls-29" d="M577.74,293.45c-13.72,11.41-19.99,20.95-22.58,25.82-1.19,2.23-1.6,3.48-1.6,3.48l-2.98-1.1,1.21,2.75-4.36,8.81h0s-1.91,3.86-1.91,3.86v-15.36c.58-1.13,1.39-2.61,2.42-4.31,1.92-3.19,4.62-7.13,8.06-10.92,1.56-1.72,3.27-3.4,5.14-4.96,4.63-3.89,10.18-7.02,16.59-8.07Z"/>
          <g class="cls-7">
            <path class="cls-24" d="M545.31,327.82c1.42-3.82,3.28-7.44,5.39-10.91,2.12-3.46,4.56-6.72,7.27-9.73,2.68-3.04,5.76-5.72,9.07-8.05l2.52-1.7,2.66-1.46c.45-.24.88-.5,1.33-.72l1.4-.6,2.79-1.19-2.78,1.22-1.39.61c-.45.23-.88.49-1.33.74l-2.64,1.49-2.5,1.72c-3.27,2.36-6.32,5.06-8.96,8.11-2.68,3.02-5.07,6.29-7.15,9.75-2.06,3.46-3.88,7.1-5.24,10.88h0c-.04.13-.18.19-.3.15-.12-.04-.18-.18-.14-.3h0Z"/>
          </g>
          <path class="cls-8" d="M553.56,322.75l-2.98-1.1,1.21,2.75-4.36,8.81h0s-1.91.28-1.91.28v-11.77c.58-1.13,1.39-2.61,2.42-4.31,1.36,1.11,3.75,2.41,7.21,1.87-1.19,2.23-1.6,3.48-1.6,3.48Z"/>
        </g>
        <path class="cls-30" d="M595.19,339.08h-49.66v-6.97s.73-1.69,2.74-2.7c.62-.32,1.36-.57,2.23-.68,3.72-.5,4.96,2.56,4.96,2.56,0,0,.91-2.65,4.63-2.98,3.61-.32,5.81,5.31,5.94,5.65-.03-.29-.28-3.42,2.48-3.62,2.89-.21,2.89,3.63,2.89,3.63,0,0,2.31-2.51,5.28-2.35,2.98.16,3.63,3.06,3.63,3.06,0,0,1.65-2.48,5.29-1.61s4.05,6.01,9.58,6.01Z"/>
        <path class="cls-8" d="M579.68,339.08h-34.15v-6.97s.73-1.69,2.74-2.7c1.49.11,4.11.59,5.21,2.61,1.57,2.9,1.68,5.62,1.68,5.62,0,0,3.33-4.78,5.99-3.96,2.66.82,4.06,3.96,4.06,3.96,0,0,2.8-2.97,5.16-1.98,1.19.5,5.41,2.02,9.32,3.41Z"/>
        <path class="cls-17" d="M481.66,341.03c-.19-.14-6.04-15.94.7-24.95-.93,6.36-.42,11.57-.42,11.57l-.88.88.98.28s.66,8.83.98,9.86c-.72-6.6,1.06-10.46,1.06-10.46,0,0-.31,4.69.29,6.41l-.47.62.47-.09s-.33,2.84,0,3.69c0,0,3.76-11.25,2-16.19,2.32,3.61,1.67,9.64,1.67,9.64l-.6.24.37.27s-.98,6.43-3.21,8.24"/>
      </g>
      <g>
        <path class="cls-5" d="M254.96,335.9s-29.26-19.74-46.4-17.91c10.43-5.08,35.89,3.89,35.89,3.89l1.01,2.25.72-1.29s5.09.13,11.33,2.56c-25.03-21.01-41.38-23.05-41.38-23.05,0,0,7.54-1.42,17.5.8,9.96,2.22,14.8,6.16,14.8,6.16l2.26,3.97,1.25-2.24,25.02,25.2"/>
        <path class="cls-9" d="M232.16,338.22s-12.36-2.64-20.12-11.9c13.22,1.32,18.93,6.11,20.12,11.9Z"/>
        <g>
          <path class="cls-36" d="M273.5,282.56c-1.06,24.79,1.47,33.7,1.47,33.7l-3.39,1.55s.08.07.22.19c.65.55,2.54,2.16,3.09,2.78.48.53-1.34,8.07-2.41,12.33-.43,1.7-.74,2.88-.74,2.88l-4.52.25-.25-.66-1.3-3.4s-1.78-7.46-1.67-17.41c.1-9.9,2.07-22.28,9.5-32.22Z"/>
          <g class="cls-7">
            <path class="cls-24" d="M270,336.14c-1.09-4.46-1.84-8.99-2.37-13.54-.51-4.55-.81-9.13-.71-13.71.08-4.58.52-9.16,1.52-13.63.99-4.47,2.61-8.82,5.07-12.69-2.43,3.89-4,8.25-4.96,12.71-.96,4.47-1.36,9.05-1.4,13.61-.05,4.57.28,9.14.83,13.67.57,4.53,1.36,9.04,2.48,13.46h0c.03.13-.04.26-.17.29-.12.03-.25-.04-.28-.17h0Z"/>
          </g>
          <path class="cls-8" d="M274.89,320.78c.48.53-1.34,8.07-2.41,12.33-2.01,1.05-3.98,1.88-5.51,2.47l-1.3-3.4s-1.78-7.46-1.67-17.41c2.03,1.21,5,2.74,7.8,3.22.65.55,2.54,2.16,3.09,2.78Z"/>
        </g>
        <g>
          <path class="cls-29" d="M290.98,299.64c-6.12,10.69-7.88,18.37-8.38,22.15-.23,1.73-.2,2.63-.2,2.63h-2.19s1.45,1.49,1.45,1.49l-.69,6.75h0s-.3,2.96-.3,2.96l-3.7-9.93c.11-.87.27-2.03.52-3.37.48-2.53,1.27-5.73,2.58-9,.59-1.49,1.3-2.99,2.13-4.45,2.06-3.63,4.89-7,8.79-9.22Z"/>
          <g class="cls-7">
            <path class="cls-24" d="M278.22,329.69c0-2.83.34-5.61.87-8.37.54-2.75,1.34-5.45,2.38-8.05,1.01-2.61,2.36-5.09,3.94-7.39l1.22-1.7,1.37-1.59c.23-.26.45-.53.69-.79l.76-.72,1.52-1.44-1.5,1.46-.75.73c-.23.26-.45.53-.68.8l-1.35,1.6-1.2,1.72c-1.54,2.32-2.85,4.8-3.82,7.41-1,2.6-1.75,5.29-2.25,8.03-.49,2.73-.78,5.53-.75,8.29h0c0,.14-.1.25-.23.25-.13,0-.23-.1-.23-.23,0,0,0,0,0,0Z"/>
          </g>
          <path class="cls-8" d="M282.4,324.42h-2.19s1.45,1.49,1.45,1.49l-.69,6.75h0s-1.17.64-1.17.64l-2.84-7.62c.11-.87.27-2.03.52-3.37,1.15.39,3.01.65,5.11-.53-.23,1.73-.2,2.63-.2,2.63Z"/>
        </g>
        <path class="cls-30" d="M312,338.99h-12.42s-53.98.06-53.98.06l-16.04.02s1.32-4.32,7.6-6.3c6.28-1.98,8.09,2.12,8.09,2.12,0,0-.34-8.21,7.11-11.04,7.44-2.82,10.74,6.6,10.74,6.6,0,0,1.48-4.64,9.41-5.04,7.93-.4,7.11,5.79,7.11,5.79,0,0,4.46-5.02,12.56-3.87,8.09,1.14,8.92,7.56,8.92,7.56,0,0,7.1-2.07,10.9,4.1Z"/>
        <path class="cls-8" d="M299.58,339.01l-53.98.05c2.8-2.48,7.35-5.71,12.21-5.76,7.93-.08,9.21,2.79,9.21,2.79,0,0,4.89-5.18,8.74-4.3,3.86.88,4.02,5.02,4.02,5.02,0,0,12.32-2.86,19.79,2.21Z"/>
        <path class="cls-17" d="M320.92,342.45s-8.98-15.88-6.28-31.31c2.64,12.05,9.09,20.07,9.09,20.07l-2.64,2.09h2.64l5.62,10.71-7.61-1.56v.73l-.82-.73Z"/>
      </g>
    </g>
  </g>
</svg>